<svg xmlns="http://www.w3.org/2000/svg" viewBox="0 0 332.32 86.28"><defs><style>.cls-1{fill:#525251;}.cls-2{fill:#a2c617;}</style></defs><title>logo</title><g id="Livello_2" data-name="Livello 2"><g id="Livello_1-2" data-name="Livello 1"><polygon class="cls-1" points="172.88 85.59 185.55 60.45 160.41 60.45 172.88 85.59"/><polygon class="cls-1" points="319.9 60.92 307.33 85.87 332.28 85.87 319.9 60.92"/><path class="cls-1" d="M156.76,60.45V85.77H151V60.45Z"/><path class="cls-1" d="M207.66,69.13a8.7,8.7,0,0,1-8.87,8.68H195v8h-5.78V60.45h9.58A8.7,8.7,0,0,1,207.66,69.13Zm-5.79,0a3.1,3.1,0,0,0-3.08-3.26H195v6.52h3.8A3.09,3.09,0,0,0,201.87,69.13Z"/><path class="cls-1" d="M219.94,77.45H217.2v8.32h-5.79V60.45h10.13a8.66,8.66,0,0,1,8.68,8.68,8.34,8.34,0,0,1-4.67,7.34l5.39,9.3h-6.22Zm-2.74-5.06h4.34a3.28,3.28,0,0,0,0-6.52H217.2Z"/><path class="cls-1" d="M234.69,73.11a13.17,13.17,0,1,1,13.17,13.17A13.06,13.06,0,0,1,234.69,73.11Zm20.55,0a7.38,7.38,0,1,0-7.38,7.53A7.21,7.21,0,0,0,255.24,73.11Z"/><path class="cls-1" d="M284.68,60.45V85.77h-4.34L270.57,72V85.77h-5.79V60.45h4.34l9.77,13.75V60.45Z"/><path class="cls-1" d="M307.24,66h-6.51V85.77h-5.79V66h-6.51V60.45h18.81Z"/><path class="cls-2" d="M61.87,43.85h8.85c13.11,0,21.38-9,21.38-20.18v-.13c0-11.17-8.27-20.31-21.38-20.31H61.25L59.39,0H70.72c14.79,0,25,10.15,25,23.4v.14c0,13.24-10.22,23.53-25,23.53H59.39Z"/><path class="cls-2" d="M244.93,24v-.13C244.93,11,254.55.35,267.69.35c8.13,0,13,3,17.68,7.28L283,10.1c-4-3.83-8.52-6.69-15.35-6.69-10.92,0-19.18,8.9-19.18,20.35v.13c0,11.5,8.39,20.48,19.25,20.48,6.57,0,11.05-2.54,15.67-7.09l2.27,2.21c-4.81,4.75-10,7.93-18.07,7.93C254.55,47.42,244.93,37.08,244.93,24Z"/><polygon class="cls-2" points="126.35 38.9 105.97 0.63 101.58 0.63 126.35 47.15 151.12 0.63 146.73 0.63 126.35 38.9"/><polygon class="cls-2" points="24.77 9.09 45.15 47.37 49.55 47.37 24.77 0.85 0 47.37 4.39 47.37 24.77 9.09"/><polygon class="cls-2" points="172.98 9.09 193.36 47.37 197.75 47.37 172.98 0.85 148.21 47.37 152.6 47.37 172.98 9.09"/><path class="cls-2" d="M201.15.54H206l26.51,46.83h-4.86Z"/><path class="cls-2" d="M301,43.89l31.3,0v3.23l-33.78,0Zm0-22.17H329V25h-27.9ZM299.2,0H332V3.23H301.06Z"/></g></g></svg>